# xmcd CD database file
#
# Track frame offsets:
#	150
#	15850
#	32615
#	58735
#	84470
#	112322
#	134852
#	140747
#	162157
#	184534
#	216280
#
# Disc length: 3133 seconds
#
# Revision: 2
# Processed by: cddbd v1.5.1PL0 Copyright (c) Steve Scherf et al.
# Submitted via: CDex 1.51
#
DISCID=9d0c3b0b
DTITLE=JOE SATRIANI - The Extremist
DYEAR=1992
DGENRE=Instrumental Rock
TTITLE0=Friends
TTITLE1=The Extremist
TTITLE2=War
TTITLE3=Cryin'
TTITLE4=Rubina's Blue Sky Happiness
TTITLE5=Summer Song
TTITLE6=Tears In The Rain
TTITLE7=Why
TTITLE8=Motorcycle Driver
TTITLE9=New Blues
TTITLE10=Crazy
EXTD=YEAR: 1992
EXTT0=
EXTT1=
EXTT2=
EXTT3=
EXTT4=
EXTT5=
EXTT6=
EXTT7=
EXTT8=
EXTT9=
EXTT10=
PLAYORDER=
